<svg height="15" viewBox="0 0 21 15" width="21" xmlns="http://www.w3.org/2000/svg" xmlns:xlink="http://www.w3.org/1999/xlink"><linearGradient id="a" x1="50%" x2="50%" y1="0%" y2="100%"><stop offset="0" stop-color="#fff"/><stop offset="1" stop-color="#f0f0f0"/></linearGradient><linearGradient id="b" x1="50%" x2="50%" y1="0%" y2="100%"><stop offset="0" stop-color="#043cae"/><stop offset="1" stop-color="#00339a"/></linearGradient><linearGradient id="c" x1="50%" x2="50%" y1="0%" y2="100%"><stop offset="0" stop-color="#ffd429"/><stop offset="1" stop-color="#fc0"/></linearGradient><g fill="none" fill-rule="evenodd"><path d="m0 0h21v15h-21z" fill="url(#a)"/><path d="m0 0h21v15h-21z" fill="url(#b)"/><path d="m10.5 3-.70710678.20710678.20710678-.70710678-.20710678-.70710678.70710678.20710678.7071068-.20710678-.2071068.70710678.2071068.70710678zm0 10-.70710678.2071068.20710678-.7071068-.20710678-.7071068.70710678.2071068.7071068-.2071068-.2071068.7071068.2071068.7071068zm5-5-.7071068.20710678.2071068-.70710678-.2071068-.70710678.7071068.20710678.7071068-.20710678-.2071068.70710678.2071068.70710678zm-10 0-.70710678.20710678.20710678-.70710678-.20710678-.70710678.70710678.20710678.70710678-.20710678-.20710678.70710678.20710678.70710678zm9.330127-2.5-.7071068.20710678.2071068-.70710678-.2071068-.70710678.7071068.20710678.7071068-.20710678-.2071068.70710678.2071068.70710678zm-8.66025402 5-.70710678.2071068.20710678-.7071068-.20710678-.70710678.70710678.20710678.70710678-.20710678-.20710678.70710678.20710678.7071068zm6.83012702-6.83012702-.7071068.20710678.2071068-.70710678-.2071068-.70710678.7071068.20710678.7071068-.20710678-.2071068.70710678.2071068.70710678zm-5 8.66025402-.70710678.2071068.20710678-.7071068-.20710678-.7071068.70710678.2071068.70710678-.2071068-.20710678.7071068.20710678.7071068zm6.830127-1.830127-.7071068.2071068.2071068-.7071068-.2071068-.70710678.7071068.20710678.7071068-.20710678-.2071068.70710678.2071068.7071068zm-8.66025402-5-.70710678.20710678.20710678-.70710678-.20710678-.70710678.70710678.20710678.70710678-.20710678-.20710678.70710678.20710678.70710678zm6.83012702 6.830127-.7071068.2071068.2071068-.7071068-.2071068-.7071068.7071068.2071068.7071068-.2071068-.2071068.7071068.2071068.7071068zm-5-8.66025402-.70710678.20710678.20710678-.70710678-.20710678-.70710678.70710678.20710678.70710678-.20710678-.20710678.70710678.20710678.70710678z" fill="url(#c)"/></g></svg>